HIERARCHY
ROOT Hips
{
	OFFSET 0.000000 0.000000 0.000000
	CHANNELS 6 Xposition Yposition Zposition Zrotation Yrotation Xrotation 
	JOINT LHipJoint
	{
		OFFSET 0.000000 0.000000 0.000000
		CHANNELS 3 Zrotation Yrotation Xrotation
		JOINT LeftUpLeg
		{
			OFFSET 1.363060 -1.794630 0.839290
			CHANNELS 3 Zrotation Yrotation Xrotation
			JOINT LeftLeg
			{
				OFFSET 2.448110 -6.726130 0.000000
				CHANNELS 3 Zrotation Yrotation Xrotation
				JOINT LeftFoot
				{
					OFFSET 2.562200 -7.039590 0.000000
					CHANNELS 3 Zrotation Yrotation Xrotation
					JOINT LeftToeBase
					{
						OFFSET 0.157640 -0.433110 2.322550
						CHANNELS 3 Zrotation Yrotation Xrotation
						End Site
						{
							OFFSET 0.000000 0.000000 0.000000
						}
					}
				}
			}
		}
	}
	JOINT RHipJoint
	{
		OFFSET 0.000000 0.000000 0.000000
		CHANNELS 3 Zrotation Yrotation Xrotation
		JOINT RightUpLeg
		{
			OFFSET -1.305520 -1.794630 0.839290
			CHANNELS 3 Zrotation Yrotation Xrotation
			JOINT RightLeg
			{
				OFFSET -2.542530 -6.985550 0.000000
				CHANNELS 3 Zrotation Yrotation Xrotation
				JOINT RightFoot
				{
					OFFSET -2.568260 -7.056230 0.000000
					CHANNELS 3 Zrotation Yrotation Xrotation
					JOINT RightToeBase
					{
						OFFSET -0.164730 -0.452590 2.363150
						CHANNELS 3 Zrotation Yrotation Xrotation
						End Site
						{
							OFFSET 0.000000 0.000000 0.000000
						}
					}
				}
			}
		}
	}
}
MOTION
Frames: 33
Frame Time: 0.008333
-0.955327 17.831181 -1.205615 -56.424099 86.213296 -41.896212 -10.321977 0.600335 4.722561 -10.276193 -9.169099 -29.381707 -1.501121 -0.596925 8.942183 1.144021 8.680376 5.767449 2.580399 -0.000000 -25.701900 9.037214 -4.475447 -0.242407 7.714960 -7.030314 2.447209 1.972534 -1.095430 10.424259 -0.037681 0.211713 16.598487 -0.233600 0.000001 -58.438800
-0.737960 17.834125 -1.252829 -62.094622 86.493672 -47.877188 -10.335304 0.719537 4.622417 -11.234567 -8.407126 -29.097823 -1.579890 -0.573001 8.714392 1.108953 8.649461 6.558569 2.695600 0.000000 -25.674100 9.070679 -4.483413 -0.402124 7.413926 -7.738031 2.551750 1.766946 -1.194059 12.047443 -0.330430 -2.071644 15.738244 -1.115700 -0.000000 -56.827300
-0.523219 17.826073 -1.301038 -69.203789 86.758829 -55.330033 -10.334215 0.839033 4.514098 -12.181556 -7.689974 -28.811975 -1.635925 -0.530056 8.931617 1.113379 8.758653 6.918760 2.778000 -0.000001 -25.240200 9.120245 -4.467296 -0.587192 7.048937 -8.551172 2.548875 1.559596 -1.295951 13.937322 -0.639758 -4.298120 14.547408 -1.906600 0.000000 -54.976900
-0.311106 17.806990 -1.350346 -77.993591 86.975051 -64.491459 -10.319450 0.952435 4.402199 -13.070326 -7.060059 -28.503360 -1.668600 -0.470489 9.543547 1.147405 8.957302 6.863733 2.816800 0.000000 -24.474800 9.185428 -4.431848 -0.795871 6.617968 -9.451742 2.450513 1.359391 -1.403169 16.047564 -0.950391 -6.355240 13.126335 -2.541100 0.000000 -52.960200
-0.101583 17.776887 -1.400771 -88.358709 87.105233 -75.248412 -10.293422 1.053150 4.289282 -13.867672 -6.545702 -28.159441 -1.679525 -0.396934 10.498898 1.200358 9.186616 6.418964 2.796200 0.000000 -23.473901 9.263994 -4.383676 -1.024250 6.124296 -10.412881 2.262580 1.174291 -1.519003 18.339920 -1.245411 -8.157649 11.571668 -2.984900 0.000000 -50.906000
0.105418 17.735871 -1.452157 -99.620693 87.120810 -86.913538 -10.260533 1.136403 4.176448 -14.559588 -6.158975 -27.777282 -1.672675 -0.311997 11.749010 1.262070 9.388258 5.612427 2.699800 0.000000 -22.332100 9.352156 -4.328842 -1.266397 5.574042 -11.401649 1.983909 1.009956 -1.646958 20.787995 -1.508819 -9.649047 9.965507 -3.232501 0.000000 -48.966800
0.309901 17.684044 -1.504289 -110.670109 87.014149 -98.367496 -10.225918 1.200901 4.063818 -15.151491 -5.895545 -27.365486 -1.654491 -0.217907 13.248438 1.324130 9.512978 4.470848 2.516700 0.000000 -21.121599 9.445995 -4.270405 -1.514607 4.974824 -12.381059 1.605901 0.868368 -1.789487 23.377551 -1.728091 -10.802035 8.370374 -3.300700 0.000000 -47.283000
0.511972 17.621729 -1.556744 -120.547351 86.804451 -108.639911 -10.191481 1.249370 3.951839 -15.666053 -5.744483 -26.933513 -1.633447 -0.117192 14.944808 1.381685 9.535276 3.022586 2.247501 -0.000000 -19.891900 9.544816 -4.207570 -1.759999 4.331134 -13.312145 1.115845 0.747010 -1.947109 26.101286 -1.895837 -11.614520 6.828377 -3.219700 0.000001 -45.963301
0.711796 17.549312 -1.609016 -128.821335 86.528617 -117.287292 -10.154974 1.286852 3.840467 -16.138229 -5.682515 -26.496754 -1.619282 -0.012708 16.784375 1.432794 9.448118 1.294548 1.902000 0.000000 -18.661900 9.651390 -4.138032 -1.990124 3.649395 -14.148828 0.493688 0.640098 -2.118513 28.956636 -2.010927 -12.109026 5.359880 -3.025800 -0.000000 -45.060500
0.909303 17.467161 -1.660742 -135.644581 86.210112 -124.448057 -10.114792 1.317430 3.727867 -16.599594 -5.670819 -26.098048 -1.619780 0.095638 18.760704 1.475671 9.237311 -0.704972 1.489200 -0.000000 -17.369100 9.767544 -4.062380 -2.193300 2.949213 -14.864600 -0.289008 0.542633 -2.301740 31.945455 -2.076494 -12.321062 3.965290 -2.753300 -0.000000 -44.542201
1.104642 17.376173 -1.711286 -141.361970 85.878988 -130.456675 -10.063066 1.344626 3.615322 -17.086973 -5.699093 -25.739712 -1.639752 0.204051 20.813479 1.516441 8.944708 -2.937705 1.035400 0.000000 -15.998900 9.899660 -3.978929 -2.360210 2.232701 -15.427419 -1.243927 0.448379 -2.494480 35.049659 -2.100442 -12.303251 2.643998 -2.435800 -0.000000 -44.369300
1.298116 17.277451 -1.760253 -146.275049 85.556923 -135.599671 -9.995541 1.371275 3.504373 -17.628286 -5.743111 -25.435586 -1.681127 0.308984 22.889155 1.562001 8.610306 -5.361184 0.561700 0.000000 -14.531800 10.050020 -3.888295 -2.477468 1.514977 -15.797266 -2.389761 0.352444 -2.694282 38.248801 -2.093828 -12.121264 1.385410 -2.102000 0.000000 -44.444000
1.489746 17.172287 -1.807361 -150.737851 85.246545 -140.223433 -9.910284 1.397963 3.396428 -18.240109 -5.790942 -25.192712 -1.741847 0.408680 24.955121 1.619916 8.273029 -7.933622 0.082500 0.000000 -12.925800 10.218216 -3.791970 -2.540097 0.806275 -15.965511 -3.728198 0.252255 -2.899689 41.509685 -2.066958 -11.834304 0.179808 -1.772300 0.000000 -44.647300
1.679683 17.062319 -1.852505 -154.976328 84.945359 -144.549044 -9.808551 1.424386 3.293820 -18.928384 -5.835972 -25.008593 -1.817498 0.501228 26.972558 1.697566 7.972104 -10.601269 -0.393800 0.000000 -11.169000 10.400377 -3.691524 -2.544963 0.114872 -15.926805 -5.251179 0.145881 -3.109438 44.790363 -2.029928 -11.500080 -0.980354 -1.461599 -0.000000 -44.859300
1.867957 16.949405 -1.895697 -159.149538 84.644916 -148.734959 -9.694501 1.449499 3.199116 -19.689361 -5.877453 -24.871268 -1.902542 0.585117 28.903795 1.799970 7.736954 -13.304269 -0.864700 0.000001 -9.265899 10.589927 -3.588175 -2.492762 -0.556583 -15.688169 -6.941036 0.032118 -3.322377 48.043776 -1.990997 -11.166103 -2.098973 -1.178300 0.000000 -44.975700
2.054637 16.835701 -1.937202 -163.304295 84.333697 -152.832327 -9.576473 1.472205 3.113850 -20.505864 -5.914825 -24.762269 -1.991191 0.659831 30.714711 1.927814 7.581014 -15.976599 -1.330100 0.000000 -7.277800 10.776728 -3.482339 -2.387680 -1.205161 -15.262971 -8.768893 -0.090113 -3.536344 51.219490 -1.956493 -10.869259 -3.174687 -0.926100 0.000000 -44.922199
2.239814 16.723382 -1.977330 -167.443043 84.000225 -156.850362 -9.462711 1.492203 3.039858 -21.356421 -5.952461 -24.657396 -2.078988 0.725187 32.373110 2.077310 7.501887 -18.552434 -1.788700 -0.000000 -5.273500 10.951389 -3.372981 -2.236312 -1.835174 -14.674018 -10.702982 -0.221345 -3.748058 54.269822 -1.929927 -10.629337 -4.203082 -0.704400 0.000000 -44.661000
2.423577 16.614737 -2.016497 -171.494254 83.634969 -160.727425 -9.360847 1.510510 2.978047 -22.213105 -5.994171 -24.530874 -2.163226 0.781660 33.851035 2.239684 7.479149 -20.968163 -2.233400 0.000000 -3.350600 11.105783 -3.257474 -2.047004 -2.449782 -13.947381 -12.708702 -0.361554 -3.952604 57.151207 -1.912667 -10.452789 -5.177245 -0.510700 -0.000000 -44.188200
2.606071 16.511970 -2.055087 -175.344950 83.230595 -164.361484 -9.275296 1.529586 2.928545 -23.046117 -6.043053 -24.356398 -2.243191 0.829855 35.125572 2.402279 7.476765 -23.167686 -2.649700 -0.000000 -1.604600 11.235592 -3.132232 -1.828585 -3.051426 -13.111103 -14.751501 -0.509425 -4.144088 59.825225 -1.904139 -10.333691 -6.089700 -0.341300 0.000000 -43.528200
2.787523 16.417185 -2.093520 -178.863799 82.780508 -167.633156 -9.206608 1.552299 2.890238 -23.826097 -6.100674 -24.109290 -2.319720 0.870114 36.179780 2.550310 7.447743 -25.105791 -3.015900 -0.000000 -0.111900 11.340770 -2.993765 -1.590010 -3.639732 -12.194137 -16.798304 -0.661819 -4.316995 62.259416 -1.902248 -10.256498 -6.934655 -0.192700 0.000000 -42.722900
2.968111 16.332281 -2.132168 178.075457 82.277974 -170.429576 -9.152619 1.580993 2.860398 -24.525201 -6.164640 -23.766196 -2.394536 0.902213 37.002396 2.668678 7.339713 -26.749323 176.694400 0.000001 -1.072500 11.424329 -2.840057 -1.339740 -4.209592 -11.223906 -18.816719 -0.813856 -4.467247 64.426333 -1.904306 -10.202410 -7.708728 -0.062200 -0.000000 -41.823000
3.148328 16.258740 -2.171203 175.510442 81.712558 -172.722055 -9.108751 1.616599 2.838490 -25.129663 -6.239680 -23.308436 -2.469694 0.925106 37.586896 2.745657 7.109262 -28.078992 176.504900 -0.000001 -1.941900 11.490863 -2.671025 -1.084566 -4.761632 -10.231493 -20.782874 -0.959290 -4.593416 66.307000 -1.906839 -10.147918 -8.414554 0.052800 0.000000 -40.879800
3.328302 16.198025 -2.210926 173.497952 81.077526 -174.468342 -9.072705 1.659694 2.818972 -25.622070 -6.314341 -22.717693 -2.546928 0.938293 37.931904 2.770967 6.716980 -29.082529 176.436799 -0.000000 -2.478201 11.543440 -2.488118 -0.831918 -5.285420 -9.237875 -22.665305 -1.091929 -4.694743 67.883657 -1.907728 -10.079124 -9.056385 0.153900 0.000001 -39.940200
3.508451 16.151032 -2.251526 171.999408 80.365834 -175.716606 -9.042120 1.710182 2.799207 -25.999476 -6.383949 -21.982712 -2.627408 0.941296 38.038920 2.740038 6.145640 -29.757567 176.499300 0.000001 -2.693400 11.584109 -2.293569 -0.587311 -5.777543 -8.264777 -24.441646 -1.206019 -4.771744 69.146041 -1.905347 -9.985270 -9.642992 0.242900 0.000000 -39.043500
3.689072 16.118471 -2.293088 170.944272 79.574093 -176.547154 -9.015916 1.768232 2.776031 -26.265059 -6.441147 -21.095715 -2.711329 0.934356 37.910909 2.652855 5.399170 -30.105732 176.689200 -0.000000 -2.602399 11.613337 -2.089495 -0.355623 -6.234386 -7.327591 -26.090600 -1.297075 -4.824834 70.087361 -1.899617 -9.865372 -10.183596 0.321401 0.000000 -38.220100
3.870521 16.100665 -2.335816 170.253140 78.703732 -177.046857 -8.993914 1.834306 2.746538 -26.425739 -6.477148 -20.055038 -2.797656 0.918379 37.553903 2.513717 4.501861 -30.132867 176.990500 0.000000 -2.223000 11.630636 -1.877695 -0.140385 -6.652169 -6.435746 -27.594628 -1.362026 -4.853976 70.703838 -1.892020 -9.727972 -10.685491 0.390700 0.000000 -37.491801
4.053062 16.097692 -2.379882 169.842546 77.761415 -177.304418 -8.976310 1.909103 2.708298 -26.491242 -6.483517 -18.864388 -2.884224 0.894708 36.974867 2.330729 3.496825 -29.847436 177.375600 -0.000000 -1.578400 11.635068 -1.659359 0.056304 -7.027170 -5.592469 -28.940609 -1.399377 -4.858617 70.993885 -1.885468 -9.589992 -11.151750 0.452299 0.000000 -36.870600
4.237035 16.109374 -2.425625 169.646873 76.759637 -177.388191 -8.963728 1.993193 2.659625 -26.470563 -6.452794 -17.534342 -2.967792 0.865059 36.183797 2.114233 2.438346 -29.259348 177.810700 -0.000000 -0.694000 11.625492 -1.435254 0.234112 -7.353973 -4.795058 -30.121534 -1.409125 -4.837713 70.956845 -1.883972 -9.474585 -11.578791 0.506900 -0.000000 -36.359000
4.422743 16.135340 -2.473425 169.617815 75.715144 -177.345854 -8.957117 2.086928 2.599748 -26.370876 -6.379309 -16.079931 -3.044426 0.831122 35.191842 1.875636 1.385551 -28.379260 -1.740700 0.000000 -0.404900 11.600737 -1.206271 0.394372 -7.625951 -4.035940 -31.135567 -1.392614 -4.790021 70.592161 -1.891986 -9.407030 -11.956148 0.554900 -0.000000 -35.949100
4.610432 16.175015 -2.523725 169.720468 74.647539 -177.211718 -8.957774 2.190127 2.528570 -26.197358 -6.259545 -14.517363 -3.109876 0.794596 34.010556 1.625905 0.394927 -27.215674 -1.311800 0.000000 -1.704901 11.559615 -0.973776 0.539444 -7.836664 -3.304557 -31.984264 -1.352402 -4.714539 69.899230 -1.913614 -9.410253 -12.267019 0.595400 0.000000 -35.625000
4.800421 16.227720 -2.577188 169.944219 73.580330 -176.990410 -8.968004 2.302357 2.447670 -25.948545 -6.092668 -12.871549 -3.159799 0.757138 32.654719 1.374298 -0.488275 -25.775250 -0.928400 0.000000 -3.204000 11.500653 -0.739622 0.673443 -7.975237 -2.587249 -32.677207 -1.291848 -4.610118 68.876323 -1.951945 -9.500574 -12.489035 0.626300 0.000000 -35.364900
4.992966 16.292558 -2.634406 170.282222 72.536099 -176.684099 -8.990525 2.422791 2.359608 -25.622378 -5.881840 -11.164931 -3.189977 0.720504 31.138652 1.128068 -1.231190 -24.057709 -0.607501 -0.000000 -4.941000 11.422306 -0.507049 0.800498 -8.032036 -1.870929 -33.223955 -1.214804 -4.476427 67.521561 -2.008127 -9.683034 -12.597902 0.643300 -0.000000 -35.150700
5.188283 16.368566 -2.696062 170.738596 71.536144 -176.282501 -9.028939 2.550516 2.268342 -25.212799 -5.634006 -9.422813 -3.196324 0.686687 29.478128 0.892375 -1.816148 -22.055949 -0.356700 0.000000 -7.003900 11.322761 -0.280301 0.924954 -7.996052 -1.143758 -33.637116 -1.125046 -4.313623 65.832161 -2.080903 -9.948979 -12.569464 0.639700 0.000000 -34.975200
